<mxfile host="app.diagrams.net" modified="2024-05-07T07:39:32.510Z" agent="Mozilla/5.0 (Windows NT 10.0; Win64; x64) AppleWebKit/537.36 (KHTML, like Gecko) Chrome/124.0.0.0 Safari/537.36" etag="mNTbHYxu3Kbt61l_X3Uz" version="24.3.1" type="github">
  <diagram name="第 1 页" id="O6Px1F-Q0kdx2llOO8A1">
    <mxGraphModel dx="1434" dy="756" grid="1" gridSize="10" guides="1" tooltips="1" connect="1" arrows="1" fold="1" page="1" pageScale="1" pageWidth="827" pageHeight="1169" math="0" shadow="0">
      <root>
        <mxCell id="0" />
        <mxCell id="1" parent="0" />
        <mxCell id="fKm0TlUFM36616kuR0w7-1" value="Actor" style="shape=umlActor;verticalLabelPosition=bottom;verticalAlign=top;html=1;outlineConnect=0;" vertex="1" parent="1">
          <mxGeometry x="120" y="200" width="30" height="60" as="geometry" />
        </mxCell>
        <mxCell id="fKm0TlUFM36616kuR0w7-2" value="控制器&lt;div&gt;/上位機&lt;/div&gt;" style="rounded=1;whiteSpace=wrap;html=1;fontSize=24;" vertex="1" parent="1">
          <mxGeometry x="280" y="190" width="120" height="60" as="geometry" />
        </mxCell>
        <mxCell id="fKm0TlUFM36616kuR0w7-3" value="驅動器" style="rounded=1;whiteSpace=wrap;html=1;fontSize=24;" vertex="1" parent="1">
          <mxGeometry x="280" y="350" width="120" height="60" as="geometry" />
        </mxCell>
        <mxCell id="fKm0TlUFM36616kuR0w7-4" value="馬達/電機" style="rounded=1;whiteSpace=wrap;html=1;fontSize=24;" vertex="1" parent="1">
          <mxGeometry x="280" y="500" width="120" height="60" as="geometry" />
        </mxCell>
        <mxCell id="fKm0TlUFM36616kuR0w7-5" value="Encoder&lt;div style=&quot;font-size: 24px;&quot;&gt;編碼器&lt;/div&gt;" style="rounded=1;whiteSpace=wrap;html=1;fontSize=24;" vertex="1" parent="1">
          <mxGeometry x="400" y="500" width="120" height="60" as="geometry" />
        </mxCell>
        <mxCell id="fKm0TlUFM36616kuR0w7-6" value="" style="endArrow=classic;html=1;rounded=0;exitX=0.5;exitY=0;exitDx=0;exitDy=0;entryX=1;entryY=0.5;entryDx=0;entryDy=0;strokeWidth=3;" edge="1" parent="1" source="fKm0TlUFM36616kuR0w7-5" target="fKm0TlUFM36616kuR0w7-3">
          <mxGeometry width="50" height="50" relative="1" as="geometry">
            <mxPoint x="390" y="410" as="sourcePoint" />
            <mxPoint x="440" y="360" as="targetPoint" />
            <Array as="points">
              <mxPoint x="460" y="380" />
            </Array>
          </mxGeometry>
        </mxCell>
        <mxCell id="fKm0TlUFM36616kuR0w7-11" value="回饋位置、速度&lt;div style=&quot;font-size: 18px;&quot;&gt;等資訊&lt;/div&gt;" style="edgeLabel;html=1;align=center;verticalAlign=middle;resizable=0;points=[];fontSize=18;" vertex="1" connectable="0" parent="fKm0TlUFM36616kuR0w7-6">
          <mxGeometry x="-0.3333" y="-1" relative="1" as="geometry">
            <mxPoint as="offset" />
          </mxGeometry>
        </mxCell>
        <mxCell id="fKm0TlUFM36616kuR0w7-7" value="" style="endArrow=classic;html=1;rounded=0;exitX=0.25;exitY=1;exitDx=0;exitDy=0;entryX=0.25;entryY=0;entryDx=0;entryDy=0;strokeWidth=3;" edge="1" parent="1" source="fKm0TlUFM36616kuR0w7-2" target="fKm0TlUFM36616kuR0w7-3">
          <mxGeometry width="50" height="50" relative="1" as="geometry">
            <mxPoint x="390" y="410" as="sourcePoint" />
            <mxPoint x="440" y="360" as="targetPoint" />
          </mxGeometry>
        </mxCell>
        <mxCell id="fKm0TlUFM36616kuR0w7-20" value="&lt;font style=&quot;font-size: 16px;&quot;&gt;EtherCat&lt;/font&gt;&lt;div style=&quot;font-size: 16px;&quot;&gt;&lt;font style=&quot;font-size: 16px;&quot;&gt;/Pulse&lt;/font&gt;&lt;/div&gt;" style="edgeLabel;html=1;align=center;verticalAlign=middle;resizable=0;points=[];" vertex="1" connectable="0" parent="fKm0TlUFM36616kuR0w7-7">
          <mxGeometry x="-0.3" y="3" relative="1" as="geometry">
            <mxPoint x="-33" y="5" as="offset" />
          </mxGeometry>
        </mxCell>
        <mxCell id="fKm0TlUFM36616kuR0w7-8" value="" style="endArrow=classic;html=1;rounded=0;exitX=0.25;exitY=1;exitDx=0;exitDy=0;entryX=0.25;entryY=0;entryDx=0;entryDy=0;strokeWidth=3;" edge="1" parent="1" source="fKm0TlUFM36616kuR0w7-3" target="fKm0TlUFM36616kuR0w7-4">
          <mxGeometry width="50" height="50" relative="1" as="geometry">
            <mxPoint x="390" y="410" as="sourcePoint" />
            <mxPoint x="440" y="360" as="targetPoint" />
          </mxGeometry>
        </mxCell>
        <mxCell id="fKm0TlUFM36616kuR0w7-10" value="" style="endArrow=classic;html=1;rounded=0;entryX=0.75;entryY=1;entryDx=0;entryDy=0;exitX=0.75;exitY=0;exitDx=0;exitDy=0;strokeWidth=3;" edge="1" parent="1" source="fKm0TlUFM36616kuR0w7-3" target="fKm0TlUFM36616kuR0w7-2">
          <mxGeometry width="50" height="50" relative="1" as="geometry">
            <mxPoint x="390" y="410" as="sourcePoint" />
            <mxPoint x="440" y="360" as="targetPoint" />
          </mxGeometry>
        </mxCell>
        <mxCell id="fKm0TlUFM36616kuR0w7-15" value="&lt;span style=&quot;font-size: 18px;&quot;&gt;回饋位置、速度&lt;/span&gt;&lt;div style=&quot;font-size: 18px;&quot;&gt;等資訊&lt;/div&gt;" style="edgeLabel;html=1;align=center;verticalAlign=middle;resizable=0;points=[];" vertex="1" connectable="0" parent="fKm0TlUFM36616kuR0w7-10">
          <mxGeometry x="-0.28" y="-1" relative="1" as="geometry">
            <mxPoint x="69" y="-14" as="offset" />
          </mxGeometry>
        </mxCell>
        <mxCell id="fKm0TlUFM36616kuR0w7-19" value="" style="endArrow=classic;html=1;rounded=0;exitX=1;exitY=0.3333333333333333;exitDx=0;exitDy=0;entryX=0;entryY=0.5;entryDx=0;entryDy=0;strokeWidth=3;exitPerimeter=0;" edge="1" parent="1" source="fKm0TlUFM36616kuR0w7-1" target="fKm0TlUFM36616kuR0w7-2">
          <mxGeometry width="50" height="50" relative="1" as="geometry">
            <mxPoint x="320" y="420" as="sourcePoint" />
            <mxPoint x="320" y="510" as="targetPoint" />
          </mxGeometry>
        </mxCell>
        <mxCell id="fKm0TlUFM36616kuR0w7-21" value="&lt;font style=&quot;font-size: 18px;&quot;&gt;光學編碼器&lt;/font&gt;&lt;div style=&quot;font-size: 18px;&quot;&gt;&lt;font style=&quot;font-size: 18px;&quot;&gt;磁電編碼器&lt;/font&gt;&lt;/div&gt;" style="shape=note;whiteSpace=wrap;html=1;backgroundOutline=1;darkOpacity=0.05;" vertex="1" parent="1">
          <mxGeometry x="570" y="500" width="100" height="110" as="geometry" />
        </mxCell>
        <mxCell id="fKm0TlUFM36616kuR0w7-22" value="" style="endArrow=classic;html=1;rounded=0;" edge="1" parent="1">
          <mxGeometry width="50" height="50" relative="1" as="geometry">
            <mxPoint x="390" y="400" as="sourcePoint" />
            <mxPoint x="440" y="350" as="targetPoint" />
          </mxGeometry>
        </mxCell>
        <mxCell id="fKm0TlUFM36616kuR0w7-24" value="" style="endArrow=classic;html=1;rounded=0;exitX=1;exitY=0.5;exitDx=0;exitDy=0;entryX=0;entryY=0.5;entryDx=0;entryDy=0;entryPerimeter=0;" edge="1" parent="1" source="fKm0TlUFM36616kuR0w7-5" target="fKm0TlUFM36616kuR0w7-21">
          <mxGeometry width="50" height="50" relative="1" as="geometry">
            <mxPoint x="390" y="400" as="sourcePoint" />
            <mxPoint x="440" y="350" as="targetPoint" />
          </mxGeometry>
        </mxCell>
      </root>
    </mxGraphModel>
  </diagram>
</mxfile>
